<svg xmlns="http://www.w3.org/2000/svg" viewBox="0 0 247.4 210.44"><title>Asset 1</title><g id="Layer_2" data-name="Layer 2"><g id="Layer_1-2" data-name="Layer 1"><path d="M133.46,105.28q0-51.58,0-103.17c0-2.08,0-2.09,2.05-2.09q24.85,0,49.73,0c1.59,0,3.19.38,4.79.46s3.39-.27,5,.09c2.62.59,5.28.84,7.91,1.33a100.6,100.6,0,0,1,9.93,2.62c.66.19,1.2.73,1.85,1a47.42,47.42,0,0,1,7.82,4,11,11,0,0,1,3,2.39c.75.91,2.07,1,2.59,2.37.41,1.06,1.76,1.73,2.53,2.7a37.61,37.61,0,0,1,3.57,5,41,41,0,0,1,3,6A48,48,0,0,1,240,37.37c.3,2,.69,4.05,1.07,6.06.28,1.55.22,3,.38,4.56s.39,3.19.48,4.79,0,3.17,0,4.75c0,2.44-.85,4.82-.49,7.29-.69,1.1-.38,2.35-.53,3.53s-.53,2.11-.77,3.17A27.77,27.77,0,0,1,239.4,75c-1.47,4.07-2.82,8.2-5.46,11.72-1.1,1.47-2.15,3-3.38,4.34a27.15,27.15,0,0,1-8,6c-.18.1-1.16.31,0,1a47.35,47.35,0,0,1,7.43,5,63.46,63.46,0,0,1,5.85,5.75c.63.67.87,1.74,1.55,2.33,1.63,1.4,2.23,3.45,3.35,5.15,1.24,1.89,1.82,4.22,2.6,6.39.7,2,1.26,4,1.91,6,.29.89.16,1.82.51,2.78.53,1.46.27,3.19.63,4.74.54,2.35.08,4.77.55,7,.65,3,.26,6,.38,9.06a35.55,35.55,0,0,1-.45,3.79,28.91,28.91,0,0,1-.06,3.73c-.43,2.19-.56,4.42-1,6.58A66.27,66.27,0,0,1,244,174c-.86,2.48-1.65,5-2.68,7.39a50.54,50.54,0,0,1-6,10,46,46,0,0,1-6.8,7.13,40.43,40.43,0,0,1-10.9,6.81,41.64,41.64,0,0,1-9.22,3.08c-2,.34-3.9.7-5.81,1.1a39.84,39.84,0,0,1-4.57.38c-10.33,1-20.69.37-31,.48s-20.66,0-31,0c-.5,0-1,0-1.5,0-.71.07-1.08-.12-1-.92a14.6,14.6,0,0,0,0-1.75Zm36,42.89v24c0,3.16,0,6.32,0,9.48,0,.48.06.8.65.77s1,0,1.49,0c3,0,6,.06,9,0a83.12,83.12,0,0,0,9.05-.38,51.26,51.26,0,0,0,9.11-1.59c4.42-1.39,7.84-3.82,9.74-8.22,1.11-2.59,2.36-5.09,2.47-8,1.11-.77-.13-2.31,1-3.08a12.16,12.16,0,0,1,.07-3.47,9.91,9.91,0,0,0,.42-3.31c-.23-4.67.54-9.38-.49-14,.37-1.65-.61-3.17-.5-4.79-.83-.87-.22-2-.64-3-1.37-3-2-6.3-4.29-9a26,26,0,0,0-7.69-6.7A26.71,26.71,0,0,0,193.6,115a29,29,0,0,0-7.06-1c-5.16-.15-10.32,0-15.48,0-1.6,0-1.61,0-1.61,1.53Zm0-91.4q0,13.35,0,26.7c0,.7.1,1,.92,1,3.24,0,6.49.06,9.73,0s6.51.17,9.8-.37a41,41,0,0,0,7.1-1.59c3.95-1.36,7.19-3.5,8.94-7.45A19.66,19.66,0,0,0,208,68.88a48.73,48.73,0,0,1,1-5.56,31.67,31.67,0,0,0,.4-5.81c0-1.74,0-3.49,0-5.24,0-1.08.06-2.16,0-3.24s-.42-1.85-.46-2.79a18.33,18.33,0,0,0-.48-3A14.82,14.82,0,0,0,203.16,34c-2.1-1.9-4.78-2.53-7.32-3.4-.94-.32-2-.1-3.05-.48s-2-.16-3-.5-2.14,0-3.22-.09-2-.44-3-.46c-4.24-.05-8.48,0-12.72,0-1.51,0-1.32-.07-1.32,1.33Z"/><path d="M0,105.28V2.63C0,2.05,0,1.46,0,.88S.08-.07.8,0A12.5,12.5,0,0,0,2.3,0q24,0,48,0c1.51,0,3,.38,4.54.46S58,.25,59.54.59s3.22.22,4.8.48c1.78.3,3.59.6,5.31,1.06,1.54.42,3.34.19,4.65,1.39,1.73-.22,3.11,1.22,4.84,1,.11,0,.24.2.38.27,1.61.74,3.27,1.38,4.82,2.24,3,1.67,6.11,3.25,8.64,5.7.74.72,1.69,1.23,2.42,2A46.59,46.59,0,0,1,105,28.45a82.15,82.15,0,0,1,2.94,8.27,36.8,36.8,0,0,1,1.58,6.61c.27,2,.62,4.08,1.07,6.06.36,1.64.15,3.22.4,4.81,1,6.16.36,12.35.46,18.52s0,12.49,0,18.74v37.46c0,6.24,0,12.48,0,18.73,0,2.84-.5,5.67-.58,8.53a30.11,30.11,0,0,1-1,5.82c-.44,1.88-.36,3.91-1.43,5.64,0,3.36-1.58,6.32-2.51,9.45a6.4,6.4,0,0,1-.51,1.53,26.1,26.1,0,0,0-1.63,3.57,54.42,54.42,0,0,1-2.75,4.86c-1.32,2.45-3.25,4.47-4.81,6.74a9.06,9.06,0,0,1-1.83,1.58,11.33,11.33,0,0,0-.94.74,38.56,38.56,0,0,1-11.64,8.1c-1.73.83-3.55,1.47-5.35,2.15-1,.38-2.05.68-3.08,1s-2.07.63-3.12.93-1.83.15-2.79.48c-1.47.51-3.2.26-4.75.63-2.5.6-5.09.07-7.52.56a36.74,36.74,0,0,1-7.31.38c-15.16,0-30.32,0-45.47,0-.59,0-1.17,0-1.75,0s-.74-.16-.71-.7,0-1.33,0-2Zm36,.48V179.7a17,17,0,0,1,0,1.75c-.09.78.23,1,1,1,2.42,0,4.84,0,7.25,0s4.68.18,7.06-.4c1.84-.45,3.84-.11,5.78-.53a41.87,41.87,0,0,0,6.48-1.87,13.61,13.61,0,0,0,5.81-4.68,24.93,24.93,0,0,0,4.06-9.07,58.18,58.18,0,0,0,1-6.81c.29-2,.24-4,.45-6,.4-4,.21-8,.5-12,.38-5.39.1-10.82.1-16.23V92.49c0-5.33.08-10.66,0-16s.44-10.7-.44-16c-.39-2.39,0-4.83-.41-7.3s-.71-5-1.08-7.56A20.26,20.26,0,0,0,71,37.92a15.24,15.24,0,0,0-6.5-6.24,23.67,23.67,0,0,0-7.11-2.09,42,42,0,0,0-7-.64c-4.07.18-8.16.05-12.24.05C36,29,36,29,36,31.07Z"/></g></g></svg>